<svg width="263" height="54" viewBox="0 0 263 54" fill="none" xmlns="http://www.w3.org/2000/svg">
<path d="M18.24 6H0V48H18.24C30.6 48 38.34 39.12 38.34 27C38.34 14.64 30.48 6 18.24 6ZM18.06 40.56H8.16V13.38H18.06C25.26 13.38 30.06 18.84 30.06 26.82C30.06 34.92 25.26 40.56 18.06 40.56Z" fill="#090909"/>
<path d="M72.1341 6V30.66C72.1341 36.84 68.8341 41.28 62.2341 41.28C55.6941 41.28 52.3941 36.84 52.3941 30.66V6H44.0541V30.78C44.0541 41.46 50.4741 48.84 62.2341 48.84C73.9341 48.84 80.4141 41.46 80.4141 30.78V6H72.1341Z" fill="#090909"/>
<path d="M108.172 48.84C119.272 48.84 126.352 42.06 128.272 35.34L120.292 33.3C118.912 37.44 114.412 41.1 108.052 41.1C99.772 41.1 94.492 34.44 94.492 26.88C94.492 19.32 99.772 12.9 108.052 12.9C114.412 12.9 118.912 16.68 120.292 20.76L128.332 18.78C126.412 12.12 119.332 5.16 107.992 5.16C95.512 5.16 86.092 14.58 86.092 26.94C86.092 39.36 95.512 48.84 108.172 48.84Z" fill="#090909"/>
<path d="M161.723 48H171.743L153.863 24.36L170.423 6H159.982L142.283 26.34V6H134.062V48H142.283V37.26L148.462 30.42L161.723 48Z" fill="#090909"/>
<path d="M176.25 48H184.59V6H176.25V48Z" fill="#090909"/>
<path d="M223.323 13.44V6H192.363V48H223.263V40.56H200.403V30.24H220.263V23.04H200.403V13.44H223.323Z" fill="#090909"/>
<path d="M245.793 48.84C255.873 48.84 262.593 43.02 262.593 35.82C262.593 28.98 257.733 26.28 251.313 24.3L240.873 20.94C238.113 20.1 236.853 18.84 236.853 16.98C236.853 14.52 239.493 12.42 243.633 12.42C248.373 12.42 252.273 14.76 254.013 18.18L261.633 15.96C259.353 10.14 252.633 5.16 243.573 5.16C234.813 5.16 228.453 10.68 228.513 17.22C228.453 22.62 232.473 26.16 237.993 27.9L248.733 31.26C252.753 32.58 254.253 34.08 254.253 36.3C254.253 39.06 251.193 41.58 246.273 41.58C240.213 41.58 235.953 38.1 234.273 33.72L226.413 36.12C228.753 42.66 235.533 48.84 245.793 48.84Z" fill="#090909"/>
<path d="M7.548 0H13.4948V12H7.548V0Z" fill="black"/>
<path d="M7.548 42H13.4948V54H7.548V42Z" fill="black"/>
<path d="M16.4682 0H22.415V12H16.4682V0Z" fill="black"/>
<path d="M16.4682 42H22.415V54H16.4682V42Z" fill="black"/>
</svg>
