<svg width="384" height="58" viewBox="0 0 384 58" fill="none" xmlns="http://www.w3.org/2000/svg">
<g clip-path="url(#clip0_704_77)">
<path d="M206.977 10.9658V23.7521H207.091C209.203 20.9755 212.217 19.5866 216.136 19.5866C217.884 19.5866 219.538 19.8723 221.095 20.4426C222.653 21.0128 224.038 21.8727 225.247 23.0235C226.454 24.173 227.4 25.6096 228.083 27.3345C228.767 29.0582 229.107 31.0495 229.107 33.3074C229.107 35.8523 228.641 38.217 227.704 40.4014C226.767 42.5872 225.309 44.3365 223.331 45.6534C221.353 46.969 218.898 47.6293 215.965 47.6293C211.731 47.6293 208.716 46.279 206.918 43.5809H206.805V46.9304H198.763V10.9658H206.977ZM176.121 18.8357C191.748 18.8357 190.411 35.6343 190.411 35.6343H169.019C169.885 38.9773 172.76 41.1747 176.722 41.1747C181.496 41.1747 184.068 38.2887 184.068 38.2887L188.61 42.9331C186.272 45.2565 183.132 47.3792 176.653 47.3792C166.636 47.3792 161.293 40.7434 161.293 33.7099C161.293 26.6763 165.301 18.8357 176.121 18.8357ZM370.704 18.8235C377.427 18.8235 381.701 21.389 381.701 21.389L378.94 27.3168C369.992 22.6724 365.94 25.9458 365.94 27.5819C365.94 29.2193 367.542 29.3519 373.775 30.5027C380.008 31.6535 382.903 34.2615 382.903 38.4644C382.903 42.6672 379.295 47.3129 370.481 47.3129C361.664 47.3129 357.658 44.481 357.658 44.481L360.329 38.597C367.231 42.9775 375.066 41.5602 375.066 38.9522C375.066 36.9943 372.461 36.5794 369.657 36.2516L368.449 36.1122C367.914 36.0488 367.383 35.9811 366.874 35.8989C363.313 35.3235 358.015 33.4222 358.015 27.9359C358.015 22.4509 363.982 18.8235 370.704 18.8235ZM331.342 9.0921V30.8132L343.028 19.5755H352.579L340.997 30.7128L353.714 47.3132H344.231L335.535 35.9648L331.342 39.9952V47.3132H323.528V9.0921H331.342ZM303.336 18.6476C308.879 18.6476 313.731 21.4088 316.414 25.5473L309.808 29.4348C308.57 27.0817 306.135 25.4817 303.336 25.4817C299.279 25.4817 295.989 28.8388 295.989 32.9799C295.989 37.1197 299.279 40.4781 303.336 40.4781C306.006 40.4781 308.336 39.0197 309.623 36.8442L316.258 40.6416C313.546 44.6501 308.776 47.3134 303.336 47.3134C294.889 47.3134 288.042 40.8952 288.042 32.9799C288.042 25.0633 294.889 18.6476 303.336 18.6476ZM267.022 18.6463C275.467 18.6463 282.316 25.0646 282.316 32.9786C282.316 40.8952 275.467 47.3122 267.022 47.3122C258.573 47.3122 251.729 40.8952 251.729 32.9786C251.729 25.0646 258.573 18.6463 267.022 18.6463ZM128.163 19.4432V47.0483H119.681V19.4432H128.163ZM112.064 11.0819V17.9829H93.0974V27.1404H109.859V33.9757H93.0974V47.0478H84.6143V11.0819H112.064ZM146.264 22.8927C146.264 22.8927 149.27 18.1814 155.48 18.9125V26.609C155.48 26.609 148.735 24.8841 146.264 31.852V47.0467H138.183V19.4429H145.909L146.264 22.6945V22.8927ZM243.644 8.95848V46.8475H235.096V8.95848H243.644ZM213.665 25.6521C208.978 25.6521 206.633 28.5072 206.633 34.22C206.633 36.3852 207.237 38.2015 208.444 39.669C209.652 41.1352 211.472 41.8689 213.907 41.8689C215.53 41.8689 216.848 41.4454 217.86 40.5984C218.872 39.7501 219.589 38.7138 220.013 37.4871C220.439 36.2616 220.651 35.0374 220.651 33.8158C220.651 31.4679 220.095 29.5229 218.984 27.9743C217.872 26.4257 216.098 25.6521 213.665 25.6521ZM267.022 25.4817C262.962 25.4817 259.674 28.8375 259.674 32.9786C259.674 37.121 262.962 40.4781 267.022 40.4781C271.079 40.4781 274.367 37.121 274.367 32.9786C274.367 28.8375 271.079 25.4817 267.022 25.4817ZM176.254 24.851C172.121 24.851 169.823 27.4011 169.048 30.7235H182.899C182.831 29.8597 181.463 24.851 176.254 24.851ZM123.922 6.43637C126.674 6.43637 128.907 8.48696 128.907 11.0151C128.907 13.5433 126.674 15.5939 123.922 15.5939C121.169 15.5939 118.935 13.5433 118.935 11.0151C118.935 8.48696 121.169 6.43637 123.922 6.43637Z" fill="black"/>
<path d="M56.263 0C57.5406 0 58.5763 1.03738 58.5763 2.31705V55.6093C58.5763 56.889 57.5406 57.9263 56.263 57.9263H2.31325C1.03568 57.9263 0 56.889 0 55.6093V2.31705C0 1.03738 1.03568 0 2.31325 0H56.263ZM29.288 16.0907L13.0168 41.8357H45.5592L29.288 16.0907Z" fill="black"/>
</g>
<defs>
<clipPath id="clip0_704_77">
<rect width="384" height="57.9263" fill="white"/>
</clipPath>
</defs>
</svg>
