<svg width="184" height="63" viewBox="0 0 184 63" fill="none" xmlns="http://www.w3.org/2000/svg">
<g clip-path="url(#clip0_709_4)">
<path d="M31.1864 34.9284V37.4233H52.1063C50.7403 42.0036 47.9089 46.0089 44.0471 48.8244C40.185 51.6402 35.5055 53.1107 30.727 53.01C25.9486 52.9095 21.3352 51.2436 17.595 48.2677C13.8548 45.2922 11.1944 41.1713 10.0224 36.5379C8.85034 31.9042 9.23131 27.0141 11.1068 22.6179C12.9823 18.2218 16.2488 14.5626 20.4047 12.2021C24.5606 9.84158 29.3764 8.9102 34.1127 9.5509C38.849 10.1916 43.2444 12.369 46.6237 15.7488L53.2415 9.13103C48.1403 4.02853 41.4278 0.852611 34.2477 0.144414C27.0673 -0.563781 19.8637 1.23955 13.864 5.24717C7.86425 9.25478 3.43974 15.2187 1.34426 22.1228C-0.751212 29.0269 -0.387993 36.444 2.37204 43.1101C5.13207 49.7765 10.1181 55.2797 16.4807 58.6818C22.8433 62.084 30.1887 63.1749 37.2653 61.7687C44.3421 60.3622 50.7123 56.5456 55.2904 50.9691C59.8686 45.3927 62.3716 38.4013 62.3729 31.1861V28.0674H38.0475C36.2277 28.0674 34.4825 28.7903 33.1961 30.077C31.9093 31.3638 31.1864 33.1089 31.1864 34.9284Z" fill="#271E2C"/>
<path d="M107.812 28.791C109.841 26.3262 111.127 23.3355 111.521 20.1675C111.916 16.9994 111.401 13.7846 110.038 10.8977C108.675 8.0108 106.52 5.57083 103.823 3.86219C101.126 2.15354 97.9993 1.24662 94.8068 1.24715H68.6102V61.1251H97.6136C101.393 61.1245 105.074 59.9191 108.122 57.684C111.17 55.4489 113.426 52.3003 114.563 48.6958C115.7 45.0912 115.659 41.2179 114.445 37.6386C113.23 34.0593 110.907 30.9601 107.812 28.791ZM97.6136 51.7692H77.9661V10.6031H94.8068C96.7918 10.6031 98.6957 11.3917 100.099 12.7953C101.503 14.199 102.292 16.1027 102.292 18.0878C102.292 20.0729 101.503 21.9767 100.099 23.3803C98.6957 24.784 96.7918 25.5726 94.8068 25.5726H94.1831C92.3633 25.5726 90.6181 26.2954 89.3317 27.5821C88.0449 28.8688 87.322 30.6139 87.322 32.4336V34.9285H97.6136C99.8468 34.9285 101.988 35.8157 103.568 37.3947C105.147 38.974 106.034 41.1156 106.034 43.3488C106.034 45.5821 105.147 47.7237 103.568 49.303C101.988 50.8819 99.8468 51.7692 97.6136 51.7692Z" fill="#271E2C"/>
<path d="M157.803 28.0676C155.984 28.0676 154.239 28.7904 152.952 30.0771C151.665 31.3639 150.942 33.1091 150.942 34.9285V37.4234H171.862C170.496 42.0038 167.665 46.009 163.803 48.8246C159.941 51.6404 155.261 53.1108 150.483 53.0101C145.705 52.9097 141.091 51.2437 137.351 48.2679C133.611 45.2924 130.95 41.1714 129.778 36.538C128.606 31.9044 128.987 27.0142 130.863 22.618C132.738 18.2219 136.005 14.5627 140.161 12.2022C144.316 9.84172 149.132 8.91034 153.869 9.55103C158.605 10.1917 163 12.3691 166.38 15.7489L172.997 9.13117C167.896 4.02866 161.184 0.852748 154.004 0.144552C146.823 -0.563643 139.619 1.23969 133.62 5.2473C127.62 9.25492 123.196 15.2188 121.1 22.1229C119.005 29.027 119.368 36.4442 122.128 43.1103C124.888 49.7767 129.874 55.2798 136.237 58.682C142.599 62.0841 149.945 63.175 157.021 61.7688C164.098 60.3623 170.468 56.5457 175.046 50.9692C179.625 45.3928 182.128 38.4014 182.129 31.1862V28.0676H157.803Z" fill="#271E2C"/>
</g>
<defs>
<clipPath id="clip0_709_4">
<rect width="184" height="62.3729" fill="white"/>
</clipPath>
</defs>
</svg>
