<svg width="323" height="39" viewBox="0 0 323 39" fill="none" xmlns="http://www.w3.org/2000/svg">
<g clip-path="url(#clip0_709_9)">
<path fill-rule="evenodd" clip-rule="evenodd" d="M26.9555 0V13.0144H11.2231V0.00338248H0V38.1793H11.2231V24.6947H26.9555V38.1725H38.1793V0H26.9555Z" fill="black"/>
<path fill-rule="evenodd" clip-rule="evenodd" d="M113.79 -7.62939e-06V0.00337478H108.175V38.1793H119.526V38.1759H149.536V27.3352H119.526V10.8406H149.528V-7.62939e-06H113.79Z" fill="black"/>
<path fill-rule="evenodd" clip-rule="evenodd" d="M310.1 -7.62939e-06V16.4146L294.438 -7.62939e-06L294.406 0.0257004V-7.62939e-06H283.163V38.1793H294.406V21.2227L310.1 38.1793H321.342V-7.62939e-06H310.1Z" fill="black"/>
<path fill-rule="evenodd" clip-rule="evenodd" d="M201.347 -7.62939e-06V12.9938H183.625V0.0067561H171.807V38.1766H183.625V24.6695H201.338V38.1793H213.156V24.2988H202.134L213.168 12.9938V-7.62939e-06H201.347Z" fill="black"/>
<path fill-rule="evenodd" clip-rule="evenodd" d="M55.2291 0.00337478V-7.62939e-06H90.2908V0.00337478H92.2666V38.1759H81.13V29.9107H65.2244V38.1793H54.0873V0.00337478H55.2291ZM81.13 18.6317H65.2244V10.8406H81.13V18.6317Z" fill="black"/>
<path fill-rule="evenodd" clip-rule="evenodd" d="M232.19 -7.62939e-06V0.00269762H229.076V38.1691H232.121V38.1793H267.185V27.3509H240.214V24.505H267.19V13.6757H240.214V10.8291H267.255V-7.62939e-06H232.19Z" fill="black"/>
</g>
<defs>
<clipPath id="clip0_709_9">
<rect width="322.706" height="38.6338" fill="white"/>
</clipPath>
</defs>
</svg>
