<svg width="355" height="78" viewBox="0 0 355 78" fill="none" xmlns="http://www.w3.org/2000/svg">
<g clip-path="url(#clip0_705_96)">
<path d="M138.885 24.7666C141.063 26.0836 142.905 27.8941 144.079 30.3614C145.419 32.8304 146.09 35.7929 146.09 39.0837C146.09 42.3746 145.419 45.172 143.912 47.641C142.572 50.11 140.56 51.9205 138.047 53.0707C135.534 54.3878 132.518 55.0463 129.335 55.0463C127.493 55.0463 125.817 54.7161 124.142 54.0594C122.466 53.5659 120.959 52.5773 119.786 51.4271V68.5416H110.07V23.4495H118.446L119.284 27.0705C122.968 24.108 126.991 22.6277 131.178 22.6277C134.025 22.6277 136.707 23.2862 138.885 24.7666ZM133.523 45.172C135.198 43.6916 136.036 41.716 136.036 39.247C136.036 36.778 135.198 34.8042 133.691 33.1588C132.184 31.5133 130.173 30.8548 127.995 30.8548C126.153 30.8548 124.477 31.1832 123.137 32.0068C121.797 32.6653 120.792 33.8173 119.954 35.2977V42.7029C120.457 44.1851 121.461 45.3353 122.635 46.1589C123.975 46.9807 125.482 47.4759 127.326 47.4759C129.838 47.4759 131.847 46.6541 133.523 45.172Z" fill="#212121"/>
<path d="M151.784 30.5229C153.293 28.219 155.302 26.2434 157.982 24.9281C160.662 23.6111 163.678 22.7892 167.029 22.7892C170.38 22.7892 173.396 23.4478 176.076 24.9281C178.59 26.2452 180.599 28.219 182.108 30.688C183.615 33.157 184.286 35.7893 184.286 38.9169C184.286 42.0444 183.615 44.6768 182.108 47.1458C180.601 49.6148 178.757 51.5886 176.076 52.9057C173.563 54.2227 170.38 55.0445 167.029 55.0445C163.678 55.0445 160.662 54.386 157.982 53.0707C155.302 51.7537 153.291 49.9432 151.784 47.4759C150.444 45.0069 149.606 42.2095 149.606 38.9187C149.606 35.7893 150.444 32.9919 151.784 30.5229ZM161.669 44.8401C163.009 46.4855 164.851 47.144 167.029 47.144C169.207 47.144 171.05 46.3222 172.39 44.8401C173.73 43.3597 174.401 41.2191 174.401 38.9151C174.401 36.4461 173.73 34.4723 172.39 32.9902C170.881 31.3447 169.207 30.5211 166.861 30.5211C164.683 30.5211 163.007 31.3447 161.5 32.8251C160.16 34.4705 159.489 36.4461 159.489 38.9133C159.491 41.2191 160.16 43.1946 161.669 44.8401Z" fill="#212121"/>
<path d="M200.035 0.0798798V54.2209H190.319V0.0798798H200.035Z" fill="#212121"/>
<path d="M239.905 24.2713L220.137 68.7031H210.756L218.128 52.7406L204.056 24.2713H215.112L223.153 42.0444L231.194 24.2713H239.905Z" fill="#212121"/>
<path d="M277.097 24.2696V54.2192C277.097 57.0166 276.259 59.6507 274.584 61.9546C272.908 64.2586 270.73 66.0691 267.883 67.3843C265.036 68.7014 262.02 69.3581 258.669 69.3581C256.156 69.3581 253.978 69.0298 252.135 68.5363C250.293 67.8778 248.784 67.2193 247.613 66.5625C246.272 65.7389 244.932 64.752 243.424 63.435L249.119 56.8515C250.46 58.1685 251.967 59.1554 253.308 59.814C254.649 60.4725 256.491 60.9659 258.502 60.9659C261.016 60.9659 263.025 60.3074 264.7 59.1554C266.376 58.0035 267.214 56.193 267.214 54.0541V49.7746C266.209 51.2549 264.869 52.572 262.858 53.5589C260.847 54.5458 258.502 55.0392 255.822 55.0392C253.142 55.0392 250.461 54.3807 248.115 52.9003C245.77 51.5833 243.926 49.6095 242.419 47.1405C241.079 44.6714 240.241 42.0391 240.241 39.0766C240.241 36.1142 240.912 33.3168 242.419 30.8477C243.926 28.3787 245.77 26.4049 248.282 24.9228C250.626 23.4424 253.14 22.7839 255.82 22.7839C258.333 22.7839 260.511 23.1123 262.521 23.7708C264.532 24.4293 266.039 25.4162 267.043 26.5682L268.048 24.2643H277.097V24.2696ZM267.212 42.7012V35.2959C266.541 33.8155 265.536 32.6636 264.029 31.84C262.521 31.0164 260.847 30.5229 258.836 30.5229C256.491 30.5229 254.48 31.3465 252.804 32.8269C251.129 34.3072 250.291 36.2828 250.291 38.7518C250.291 41.0558 251.129 43.1946 252.804 44.8401C254.48 46.4855 256.491 47.3091 258.836 47.3091C262.689 47.144 265.536 45.6619 267.212 42.7012Z" fill="#212121"/>
<path d="M285.141 30.5264C286.648 28.0574 288.659 26.2469 291.34 24.7666C294.02 23.4495 297.036 22.6277 300.387 22.6277C303.738 22.6277 306.754 23.2862 309.434 24.7666C311.947 26.0836 313.957 28.0574 315.465 30.5264C316.806 32.9955 317.643 35.6278 317.643 38.7553C317.643 41.8829 316.972 44.5152 315.465 46.9843C314.125 49.4533 312.114 51.4271 309.434 52.7441C306.921 54.0612 303.738 54.883 300.387 54.883C297.036 54.883 294.02 54.2245 291.34 52.9092C288.659 51.5921 286.648 49.7816 285.141 47.3144C283.634 44.8454 282.963 42.048 282.963 38.592C282.963 35.7929 283.633 32.9955 285.141 30.5264ZM294.858 44.8436C296.198 46.489 298.04 47.1475 300.218 47.1475C302.396 47.1475 304.239 46.3239 305.579 44.8436C306.919 43.3632 307.59 41.2226 307.59 38.9186C307.59 36.4496 306.919 34.4758 305.579 32.9937C304.239 31.5134 302.396 30.6897 300.218 30.6897C298.04 30.6897 296.365 31.5134 294.858 32.9937C293.349 34.4741 292.68 36.6147 292.68 38.9186C292.848 41.2226 293.518 43.1982 294.858 44.8436Z" fill="#212121"/>
<path d="M351.988 25.2565C353.999 26.9019 354.835 29.0408 355 31.6749V54.2191H345.117V35.2959C344.95 32.3334 343.441 30.853 340.594 30.853C338.416 30.853 336.574 31.8399 335.234 33.9806C333.893 36.1195 333.223 38.7536 333.223 41.8793V54.2209H323.506V24.2696H332.385L333.056 29.0425C334.229 27.067 335.736 25.5866 337.747 24.4346C339.758 23.2827 342.103 22.7892 344.783 22.7892C347.63 22.7874 350.144 23.611 351.988 25.2565Z" fill="#212121"/>
<path d="M68.5203 23.7797C66.8447 22.7928 64.6668 22.7928 62.8244 23.7797L49.7568 31.35L40.8783 36.2863L27.8107 43.8567C26.1351 44.8436 23.9572 44.8436 22.1147 43.8567L11.7274 37.9317C10.0518 36.9448 8.87855 35.1343 8.87855 33.1588V21.4739C8.87855 19.4984 9.8832 17.6896 11.7274 16.701L21.9461 10.9411C23.6217 9.9542 25.7996 9.9542 27.6421 10.9411L37.8608 16.701C39.5364 17.6879 40.7079 19.4984 40.7079 21.4739V29.0443L49.5864 23.943V16.3744C49.5864 14.3988 48.5818 12.5901 46.7393 11.6014L27.8107 0.740175C26.1351 -0.246725 23.9572 -0.246725 22.1147 0.740175L2.84888 11.6014C1.00465 12.5883 0 14.3988 0 16.3744V38.2619C0 40.2357 1.00465 42.0462 2.84888 43.0349L22.1147 53.8961C23.7903 54.883 25.9683 54.883 27.8107 53.8961L40.8783 46.4908L49.7568 41.3894L62.8244 33.9841C64.5 32.9972 66.6779 32.9972 68.5203 33.9841L78.739 39.744C80.4146 40.7309 81.5861 42.5414 81.5861 44.517V56.2C81.5861 58.1756 80.5815 59.9843 78.739 60.973L68.5203 66.898C66.8447 67.8849 64.6668 67.8849 62.8244 66.898L52.6057 61.1381C50.9301 60.1512 49.7568 58.3407 49.7568 56.3651V48.7947L40.8783 53.8961V61.4665C40.8783 63.4403 41.8829 65.2508 43.7254 66.2394L62.9912 77.1007C64.6668 78.0876 66.8447 78.0876 68.6872 77.1007L87.953 66.2394C89.6286 65.2525 90.8001 63.4421 90.8001 61.4665V39.5772C90.8001 37.6034 89.7955 35.7929 87.953 34.806L68.5203 23.7797Z" fill="#8247E5"/>
</g>
<defs>
<clipPath id="clip0_705_96">
<rect width="355" height="77.8391" fill="white"/>
</clipPath>
</defs>
</svg>
