<svg width="10" height="14" viewBox="0 0 10 14" fill="none" xmlns="http://www.w3.org/2000/svg">
<path d="M1.9404 13.6675L1.25988 12.9936C1.03617 12.7601 0.924287 12.4874 0.924287 12.1761C0.924287 11.8584 1.03617 11.5889 1.25988 11.3672L5.66924 7.00003L1.26 2.63286C1.0363 2.41122 0.924416 2.14168 0.924416 1.82408C0.924416 1.51262 1.0363 1.23996 1.26001 1.00643L1.94053 0.341456C2.17024 0.113777 2.44552 -1.37029e-08 2.76611 0C3.09268 1.39582e-08 3.36484 0.113903 3.58254 0.341425L9.48866 6.19123C9.71841 6.40698 9.83337 6.67642 9.83337 7C9.83337 7.31751 9.71844 7.59013 9.48866 7.81759L3.58254 13.6674C3.35871 13.8891 3.08658 14 2.76611 14C2.45149 14 2.17637 13.8891 1.9404 13.6675Z" fill="black"/>
</svg>
