<svg width="72" height="72" viewBox="0 0 72 72" fill="none" xmlns="http://www.w3.org/2000/svg">
<path fill-rule="evenodd" clip-rule="evenodd" d="M36 72C55.8823 72 72 55.8823 72 36C72 16.1177 55.8823 0 36 0C16.1177 0 0 16.1177 0 36C0 55.8823 16.1177 72 36 72ZM59.9537 36.6259C59.9167 35.6126 59.5873 34.6316 59.0053 33.8013C58.4233 32.9709 57.6135 32.3266 56.6736 31.9461C55.7337 31.5656 54.7038 31.465 53.7081 31.6566C52.7123 31.8482 51.7933 32.3238 51.0617 33.0259C46.9664 30.2421 42.1524 28.7041 37.2017 28.5979L39.5417 17.3659L47.2457 18.9859C47.3373 19.8373 47.7293 20.6281 48.3514 21.2164C48.9735 21.8048 49.785 22.1521 50.6401 22.1961C51.4952 22.2401 52.338 21.9779 53.0172 21.4565C53.6964 20.9351 54.1675 20.1887 54.346 19.3512C54.5245 18.5138 54.3986 17.6402 53.991 16.8871C53.5834 16.1341 52.9207 15.5511 52.122 15.2426C51.3232 14.9341 50.4407 14.9205 49.6328 15.204C48.8248 15.4876 48.1444 16.0499 47.7137 16.7899L38.8937 15.0259C38.7495 14.9943 38.6004 14.9916 38.4551 15.018C38.3098 15.0444 38.1712 15.0994 38.0473 15.1797C37.9234 15.2601 37.8166 15.3642 37.7333 15.4862C37.65 15.6081 37.5916 15.7453 37.5617 15.8899L34.8977 28.3819C29.8861 28.4575 25.0059 29.9966 20.8577 32.8099C20.3027 32.2878 19.6409 31.8925 18.9179 31.6515C18.195 31.4106 17.4284 31.3297 16.6711 31.4145C15.9138 31.4993 15.184 31.7478 14.5323 32.1426C13.8806 32.5375 13.3226 33.0694 12.8968 33.7014C12.4711 34.3333 12.1879 35.0504 12.0668 35.8027C11.9457 36.555 11.9896 37.3247 12.1956 38.0583C12.4015 38.792 12.7645 39.4721 13.2594 40.0515C13.7543 40.6309 14.3693 41.0958 15.0617 41.4139C15.0212 41.9411 15.0212 42.4707 15.0617 42.9979C15.0617 51.0619 24.4577 57.6139 36.0497 57.6139C47.6417 57.6139 57.0377 51.0619 57.0377 42.9979C57.0782 42.4707 57.0782 41.9411 57.0377 41.4139C57.9261 40.9724 58.6713 40.2884 59.1874 39.4411C59.7034 38.5939 59.9691 37.6179 59.9537 36.6259ZM47.8359 40.2246C47.8359 42.2115 46.2252 43.8223 44.2383 43.8223C42.2514 43.8223 40.6406 42.2115 40.6406 40.2246C40.6406 38.2377 42.2514 36.627 44.2383 36.627C46.2252 36.627 47.8359 38.2377 47.8359 40.2246ZM27.5625 43.8223C29.5494 43.8223 31.1602 42.2115 31.1602 40.2246C31.1602 38.2377 29.5494 36.627 27.5625 36.627C25.5756 36.627 23.9648 38.2377 23.9648 40.2246C23.9648 42.2115 25.5756 43.8223 27.5625 43.8223ZM35.9592 50.9834L35.977 50.9832V50.9835C38.5429 50.999 40.4402 50.4241 41.682 49.861C42.3075 49.5773 42.7692 49.2955 43.0675 49.0909C43.2166 48.9887 43.3246 48.9059 43.3918 48.8521C43.4253 48.8251 43.4486 48.8055 43.4616 48.7943L43.4721 48.7852C43.8687 48.4231 44.4837 48.4499 44.8473 48.8456C45.2117 49.242 45.1856 49.8588 44.7891 50.2232L44.7876 50.2246L44.7858 50.2263L44.7814 50.2302L44.7696 50.2409L44.7335 50.2724C44.704 50.2977 44.6635 50.3317 44.612 50.3731C44.509 50.4557 44.3618 50.5678 44.1703 50.6991C43.7874 50.9617 43.2267 51.3017 42.4873 51.637C41.0121 52.3059 38.8352 52.9517 35.9592 52.9334C33.0832 52.9517 30.9063 52.3059 29.4311 51.637C28.6917 51.3017 28.131 50.9617 27.7481 50.6991C27.5566 50.5678 27.4094 50.4557 27.3064 50.3731C27.2549 50.3317 27.2144 50.2977 27.1849 50.2724L27.1488 50.2409L27.137 50.2302L27.1326 50.2263L27.1308 50.2246L27.1292 50.2232C26.7328 49.8588 26.7067 49.242 27.0711 48.8456C27.4347 48.4499 28.0497 48.4231 28.4463 48.7852L28.4568 48.7943C28.4698 48.8055 28.4931 48.8251 28.5266 48.8521C28.5937 48.9059 28.7018 48.9887 28.8509 49.0909C29.1492 49.2955 29.6108 49.5773 30.2364 49.861C31.4782 50.4241 33.3755 50.999 35.9414 50.9835V50.9832L35.9592 50.9834Z" fill="#F8C100"/>
<path fill-rule="evenodd" clip-rule="evenodd" d="M59.0053 33.8013C59.5873 34.6316 59.9167 35.6126 59.9537 36.6259C59.9691 37.6178 59.7034 38.5939 59.1874 39.4411C58.6713 40.2884 57.9261 40.9724 57.0377 41.4139C57.0782 41.9411 57.0782 42.4707 57.0377 42.9979C57.0377 51.0619 47.6417 57.6139 36.0497 57.6139C24.4577 57.6139 15.0617 51.0619 15.0617 42.9979C15.0212 42.4707 15.0212 41.9411 15.0617 41.4139C14.3693 41.0958 13.7543 40.6309 13.2594 40.0515C12.7645 39.4721 12.4015 38.792 12.1956 38.0583C11.9896 37.3247 11.9457 36.555 12.0668 35.8027C12.1879 35.0503 12.4711 34.3333 12.8968 33.7014C13.3226 33.0694 13.8806 32.5375 14.5323 32.1426C15.184 31.7478 15.9138 31.4993 16.6711 31.4145C17.4284 31.3297 18.195 31.4106 18.9179 31.6515C19.6409 31.8925 20.3027 32.2877 20.8577 32.8099C25.0059 29.9966 29.8861 28.4575 34.8977 28.3819L37.5617 15.8899C37.5916 15.7453 37.65 15.6081 37.7333 15.4862C37.8166 15.3642 37.9234 15.2601 38.0473 15.1797C38.1712 15.0994 38.3098 15.0444 38.4551 15.018C38.6004 14.9916 38.7495 14.9943 38.8937 15.0259L47.7137 16.7899C48.1444 16.0499 48.8248 15.4876 49.6328 15.204C50.4407 14.9205 51.3232 14.9341 52.122 15.2426C52.9207 15.5511 53.5834 16.1341 53.991 16.8871C54.3986 17.6402 54.5245 18.5138 54.346 19.3512C54.1675 20.1887 53.6964 20.9351 53.0172 21.4565C52.338 21.9779 51.4952 22.2401 50.6401 22.1961C49.785 22.1521 48.9735 21.8048 48.3514 21.2164C47.7293 20.6281 47.3373 19.8373 47.2457 18.9859L39.5417 17.3659L37.2017 28.5979C42.1524 28.7041 46.9664 30.2421 51.0617 33.0259C51.7933 32.3238 52.7123 31.8482 53.7081 31.6566C54.7038 31.465 55.7337 31.5656 56.6736 31.9461C57.6135 32.3266 58.4233 32.9709 59.0053 33.8013ZM44.2383 43.8223C46.2252 43.8223 47.8359 42.2115 47.8359 40.2246C47.8359 38.2377 46.2252 36.627 44.2383 36.627C42.2514 36.627 40.6406 38.2377 40.6406 40.2246C40.6406 42.2115 42.2514 43.8223 44.2383 43.8223ZM31.1602 40.2246C31.1602 42.2115 29.5494 43.8223 27.5625 43.8223C25.5756 43.8223 23.9648 42.2115 23.9648 40.2246C23.9648 38.2377 25.5756 36.627 27.5625 36.627C29.5494 36.627 31.1602 38.2377 31.1602 40.2246ZM35.977 50.9832L35.9592 50.9834L35.9414 50.9832V50.9835C33.3755 50.999 31.4782 50.4241 30.2364 49.861C29.6108 49.5773 29.1492 49.2955 28.8509 49.0909C28.7018 48.9887 28.5937 48.9059 28.5266 48.8521C28.4931 48.8251 28.4698 48.8055 28.4568 48.7943L28.4463 48.7852C28.0497 48.4231 27.4347 48.4499 27.0711 48.8456C26.7067 49.242 26.7328 49.8588 27.1292 50.2232L27.1308 50.2246L27.1326 50.2263L27.137 50.2302L27.1488 50.2409L27.1849 50.2724C27.2144 50.2977 27.2549 50.3317 27.3064 50.3731C27.4094 50.4557 27.5566 50.5678 27.7481 50.6991C28.131 50.9617 28.6917 51.3017 29.4311 51.637C30.9063 52.3059 33.0832 52.9517 35.9592 52.9334C38.8352 52.9517 41.0121 52.3059 42.4873 51.637C43.2267 51.3017 43.7874 50.9617 44.1703 50.6991C44.3618 50.5678 44.509 50.4557 44.612 50.3731C44.6635 50.3317 44.704 50.2977 44.7335 50.2724L44.7696 50.2409L44.7814 50.2302L44.7858 50.2263L44.7876 50.2246L44.7891 50.2232C45.1856 49.8588 45.2117 49.242 44.8473 48.8456C44.4837 48.4499 43.8687 48.4231 43.4721 48.7852L43.4616 48.7943C43.4486 48.8055 43.4253 48.8251 43.3918 48.8521C43.3246 48.9059 43.2166 48.9887 43.0675 49.0909C42.7692 49.2955 42.3075 49.5773 41.682 49.861C40.4402 50.4241 38.5429 50.999 35.977 50.9835V50.9832Z" fill="black"/>
</svg>
